HIERARCHY
ROOT base
{
	OFFSET 0.000000 0.000000 0.000000
	CHANNELS 6 Xposition Yposition Zposition Xrotation Yrotation Zrotation
	JOINT arm.upper.left
	{
		OFFSET 0.000000 -0.095536 0.501822
		CHANNELS 3 Xrotation Yrotation Zrotation
		JOINT arm.lower.left
		{
			OFFSET 0.223613 0.093172 -0.100160
			CHANNELS 3 Xrotation Yrotation Zrotation
			End Site
			{
				OFFSET 0.000000 -0.347065 0.027952
			}
		}
	}
	JOINT arm.upper.right
	{
		OFFSET -0.000000 -0.095536 0.501822
		CHANNELS 3 Xrotation Yrotation Zrotation
		JOINT arm.lower.right
		{
			OFFSET -0.223613 0.093172 -0.100160
			CHANNELS 3 Xrotation Yrotation Zrotation
			End Site
			{
				OFFSET 0.000000 -0.347065 0.027952
			}
		}
	}
	JOINT upper.left.back.leg
	{
		OFFSET 0.102489 0.020929 0.331783
		CHANNELS 6 Xposition Yposition Zposition Xrotation Yrotation Zrotation
		JOINT lower.left.back.leg
		{
			OFFSET 0.181685 0.144416 -0.095501
			CHANNELS 3 Xrotation Yrotation Zrotation
			End Site
			{
				OFFSET -0.009317 0.004659 -0.235259
			}
		}
	}
	JOINT upper.left.fore.leg
	{
		OFFSET 0.102489 0.020929 0.331783
		CHANNELS 6 Xposition Yposition Zposition Xrotation Yrotation Zrotation
		JOINT lower.left.fore.leg
		{
			OFFSET 0.193332 -0.172368 -0.039598
			CHANNELS 3 Xrotation Yrotation Zrotation
			End Site
			{
				OFFSET 0.000000 0.002329 -0.291162
			}
		}
	}
	JOINT upper.right.back.leg
	{
		OFFSET -0.102489 0.020929 0.331783
		CHANNELS 6 Xposition Yposition Zposition Xrotation Yrotation Zrotation
		JOINT lower.right.back.leg
		{
			OFFSET -0.181685 0.144416 -0.095501
			CHANNELS 3 Xrotation Yrotation Zrotation
			End Site
			{
				OFFSET 0.009317 0.004659 -0.235259
			}
		}
	}
	JOINT upper.right.fore.leg
	{
		OFFSET -0.102489 0.020929 0.331783
		CHANNELS 6 Xposition Yposition Zposition Xrotation Yrotation Zrotation
		JOINT lower.right.fore.leg
		{
			OFFSET -0.193332 -0.172368 -0.039598
			CHANNELS 3 Xrotation Yrotation Zrotation
			End Site
			{
				OFFSET 0.000000 0.002329 -0.291162
			}
		}
	}
	JOINT torso
	{
		OFFSET 0.000000 -0.095536 0.501822
		CHANNELS 3 Xrotation Yrotation Zrotation
		JOINT head
		{
			OFFSET -0.000000 -0.158392 0.149075
			CHANNELS 3 Xrotation Yrotation Zrotation
			End Site
			{
				OFFSET -0.000000 -0.202649 -0.041927
			}
		}
	}
}
MOTION
Frames: 20
Frame Time: 0.041667
0.000000 0.000000 0.000000 -0.000000 0.000000 -0.000000 -2.850228 -0.119224 -7.641732 2.395954 0.478365 4.720295 2.086134 -0.814778 -3.820001 -1.953269 0.406256 6.368421 0.102489 0.020929 0.331783 -9.090764 -2.845720 -6.723825 -7.766571 -0.411616 0.566201 0.102489 0.020929 0.331783 10.193810 -1.016203 7.447100 11.682217 1.363564 -0.581501 -0.102489 0.020929 0.331783 2.857587 -6.799619 -5.001378 13.389877 10.157529 -0.223395 -0.102489 0.020929 0.331783 -2.059287 -5.343051 4.374346 -12.831071 7.446032 0.734510 -0.000002 -0.000000 0.000000 -0.000001 -0.000000 -0.000000 
0.000000 0.000000 0.000000 -0.000000 0.000000 -0.000000 -2.675059 -0.103345 -7.239982 2.247242 0.433345 4.333947 1.917248 -0.765590 -3.420920 -1.798785 0.389635 5.979814 0.102489 0.020929 0.331783 -8.641702 -2.552728 -6.281877 -7.031527 -0.745153 0.493960 0.102489 0.020929 0.331783 8.809731 -2.086295 6.995032 11.656461 2.025074 -0.579626 -0.102489 0.020929 0.331783 3.495994 -5.211893 -4.543530 11.107720 7.879413 0.049699 -0.102489 0.020929 0.331783 -1.653692 -5.080118 3.984693 -11.972137 7.145272 0.665467 -0.000002 -0.000000 0.000000 -0.000001 -0.000000 -0.000000 
0.000000 0.000000 0.000000 -0.000000 0.000000 -0.000000 -2.149318 -0.048248 -6.032854 1.798506 0.304084 3.172164 1.407669 -0.624854 -2.220672 -1.335206 0.333370 4.812220 0.102489 0.020929 0.331783 -7.304967 -1.650602 -4.966876 -4.820706 -1.754655 0.302314 0.102489 0.020929 0.331783 4.987686 -4.720479 5.514377 11.413079 3.756302 -0.561990 -0.102489 0.020929 0.331783 4.943434 -0.884435 -3.278932 5.012907 1.853080 0.318342 -0.102489 0.020929 0.331783 -0.423823 -4.305945 2.802372 -9.390404 6.233366 0.485269 -0.000002 -0.000000 0.000000 -0.000001 -0.000000 -0.000000 
0.000000 0.000000 0.000000 -0.000000 0.000000 -0.000000 -1.441787 0.043650 -4.404480 1.188907 0.144120 1.602711 0.715445 -0.451898 -0.598835 -0.711552 0.242491 3.237251 0.102489 0.020929 0.331783 -5.532277 -0.383434 -3.224193 -1.832132 -3.130941 0.105118 0.102489 0.020929 0.331783 0.672709 -6.921635 3.390924 10.692963 5.491551 -0.499106 -0.102489 0.020929 0.331783 5.843274 3.865320 -1.696585 -1.545474 -4.166418 -0.110023 -0.102489 0.020929 0.331783 1.261357 -3.300630 1.180424 -5.905385 4.987314 0.307762 -0.000002 -0.000000 0.000000 -0.000001 -0.000000 -0.000000 
0.000000 0.000000 0.000000 -0.000000 0.000000 -0.000000 -0.807606 0.143489 -2.940333 0.636863 0.014518 0.189229 0.088626 -0.313084 0.862165 -0.152750 0.146102 1.821106 0.102489 0.020929 0.331783 -3.969084 0.803132 -1.688612 0.861710 -4.378830 -0.011019 0.102489 0.020929 0.331783 -1.813662 -7.038588 1.620128 9.462382 6.164897 -0.387676 -0.102489 0.020929 0.331783 5.218203 6.459318 -0.234668 -5.022830 -6.423702 -0.584874 -0.102489 0.020929 0.331783 2.801549 -2.436660 -0.303803 -2.770457 3.856071 0.213293 -0.000002 -0.000000 0.000000 -0.000001 -0.000000 -0.000000 
0.000000 0.000000 0.000000 -0.000000 0.000000 -0.000000 -0.156044 0.263472 -1.430664 0.064007 -0.104897 -1.270650 -0.561718 -0.186647 2.371352 0.421237 0.032197 0.360789 0.102489 0.020929 0.331783 -2.388443 2.071206 -0.137066 3.646249 -5.671729 -0.069193 0.102489 0.020929 0.331783 -2.814487 -5.272279 0.109342 6.452951 4.974761 -0.126125 -0.102489 0.020929 0.331783 2.906245 7.019836 1.385319 -6.300665 -5.975631 -0.743802 -0.102489 0.020929 0.331783 4.413585 -1.587211 -1.858957 0.461574 2.846647 0.181669 -0.000002 -0.000000 0.000000 -0.000001 -0.000000 -0.000000 
0.000000 0.000000 0.000000 -0.000000 0.000000 -0.000000 0.643807 0.435239 0.431461 -0.647237 -0.232140 -3.074758 -1.368935 -0.054247 4.236574 1.125738 -0.128575 -1.440751 0.102489 0.020929 0.331783 -0.483064 3.694228 1.731457 7.090727 -7.268816 -0.053822 0.102489 0.020929 0.331783 -3.263499 -2.214713 -1.555460 0.688760 1.552147 0.146530 -0.102489 0.020929 0.331783 -0.902681 6.344921 3.396490 -7.179042 -4.675278 -0.804448 -0.102489 0.020929 0.331783 6.433814 -0.599935 -3.810089 4.445741 1.786973 0.215493 -0.000002 -0.000000 0.000000 -0.000001 -0.000000 -0.000000 
0.000000 0.000000 0.000000 -0.000000 0.000000 -0.000000 1.407659 0.624911 2.220521 -1.334934 -0.333345 -4.811687 -2.149092 0.048234 6.032365 1.798457 -0.304067 -3.172022 0.102489 0.020929 0.331783 1.301040 5.310777 3.478961 10.410726 -8.798706 0.052312 0.102489 0.020929 0.331783 -3.113849 1.303643 -3.056773 -6.035602 -2.864639 -0.015371 -0.102489 0.020929 0.331783 -5.064081 4.826452 5.234792 -7.624326 -2.811728 -0.763681 -0.102489 0.020929 0.331783 8.405893 0.282996 -5.716812 8.267847 0.708397 0.321364 -0.000002 -0.000000 0.000000 -0.000001 -0.000000 -0.000000 
0.000000 0.000000 0.000000 -0.000000 0.000000 -0.000000 1.919006 0.766134 3.424947 -1.800143 -0.389788 -5.983289 -2.676629 0.103496 7.243598 2.248779 -0.433793 -4.337840 0.102489 0.020929 0.331783 2.476418 6.428429 4.628917 12.652493 -9.822736 0.174406 0.102489 0.020929 0.331783 -2.602789 4.060343 -4.047536 -11.073740 -6.259370 -0.494276 -0.102489 0.020929 0.331783 -8.056982 3.408413 6.374607 -7.758288 -0.965685 -0.667724 -0.102489 0.020929 0.331783 9.749800 0.840008 -7.017257 10.837146 -0.347771 0.461941 -0.000002 -0.000000 0.000000 -0.000001 -0.000000 -0.000000 
0.000000 0.000000 0.000000 -0.000000 0.000000 -0.000000 2.086136 0.814780 3.820008 -1.953268 -0.406260 -6.368421 -2.850228 0.119222 7.641739 2.395953 -0.478364 -4.720296 0.102489 0.020929 0.331783 2.857587 6.799621 5.001384 13.389882 -10.157527 0.223395 0.102489 0.020929 0.331783 -2.059288 5.343049 -4.374336 -12.831066 -7.446033 -0.734510 -0.102489 0.020929 0.331783 -9.090764 2.845718 6.723826 -7.766575 0.411617 -0.566199 -0.102489 0.020929 0.331783 10.193808 1.016205 -7.447092 11.682215 -1.363562 0.581498 -0.000002 -0.000000 0.000000 -0.000001 -0.000000 -0.000000 
0.000000 0.000000 0.000000 -0.000000 0.000000 -0.000000 1.988051 0.786029 3.588258 -1.863669 -0.396745 -6.143057 -2.748559 0.110166 7.408552 2.309556 -0.452093 -4.495905 0.102489 0.020929 0.331783 3.293808 5.802962 4.726960 11.973462 -8.696671 0.038056 0.102489 0.020929 0.331783 -1.476740 5.549075 -4.150354 -12.328363 -7.270006 -0.693528 -0.102489 0.020929 0.331783 -8.846736 2.650488 6.464969 -7.335492 1.379215 -0.458630 -0.102489 0.020929 0.331783 9.330710 1.722914 -7.186058 11.673389 -2.502472 0.649234 -0.000002 -0.000000 0.000000 -0.000001 -0.000000 -0.000000 
0.000000 0.000000 0.000000 -0.000000 0.000000 -0.000000 1.677675 0.697979 2.855988 -1.580437 -0.364328 -5.430146 -2.427220 0.078797 6.671097 2.036223 -0.371345 -3.787046 0.102489 0.020929 0.331783 4.414855 2.907984 3.920233 7.909218 -4.541412 -0.283238 0.102489 0.020929 0.331783 -0.666542 5.140102 -3.432647 -10.742349 -6.711714 -0.574418 -0.102489 0.020929 0.331783 -8.027663 2.100365 5.655684 -5.983353 2.139950 -0.332254 -0.102489 0.020929 0.331783 6.799053 3.636558 -6.303228 11.560266 -3.831132 0.656537 -0.000002 -0.000000 0.000000 -0.000001 -0.000000 -0.000000 
0.000000 0.000000 0.000000 -0.000000 0.000000 -0.000000 1.185404 0.567063 1.698835 -1.134159 -0.305980 -4.305011 -1.920952 0.020865 5.507642 1.602750 -0.250774 -2.667181 0.102489 0.020929 0.331783 5.567468 -1.037527 2.755631 2.445910 0.829272 -0.238455 0.102489 0.020929 0.331783 0.378085 4.254266 -2.284511 -8.248895 -5.826102 -0.418661 -0.102489 0.020929 0.331783 -6.739202 1.226995 4.396516 -3.850211 2.792350 -0.198869 -0.102489 0.020929 0.331783 3.281164 5.871949 -4.803869 11.194846 -5.068067 0.600474 -0.000002 -0.000000 0.000000 -0.000001 -0.000000 -0.000000 
0.000000 0.000000 0.000000 -0.000000 0.000000 -0.000000 0.619687 0.429632 0.375096 -0.625799 -0.228618 -3.020188 -1.344274 -0.057885 4.179528 1.104601 -0.123393 -1.386362 0.102489 0.020929 0.331783 5.952772 -4.517685 1.476281 -2.348309 4.980017 0.213804 0.102489 0.020929 0.331783 1.574141 3.248467 -0.954077 -5.412100 -4.809222 -0.288714 -0.102489 0.020929 0.331783 -5.291692 0.196985 2.983797 -1.413109 3.501616 -0.077565 -0.102489 0.020929 0.331783 0.079233 7.211733 -3.078201 10.485087 -5.889592 0.499887 -0.000002 -0.000000 0.000000 -0.000001 -0.000000 -0.000000 
0.000000 0.000000 0.000000 -0.000000 0.000000 -0.000000 0.088627 0.313083 -0.862155 -0.152748 -0.146104 -1.821107 -0.807606 -0.143490 2.940343 0.636862 -0.014518 -0.189226 0.102489 0.020929 0.331783 5.218203 -6.459318 0.234674 -5.022831 6.423705 0.584873 0.102489 0.020929 0.331783 2.801547 2.436659 0.303813 -2.770459 -3.856071 -0.213297 -0.102489 0.020929 0.331783 -3.969084 -0.803136 1.688614 0.861707 4.378833 0.011017 -0.102489 0.020929 0.331783 -1.813662 7.038588 -1.620117 9.462382 -6.164895 0.387674 -0.000002 -0.000000 0.000000 -0.000001 -0.000000 -0.000000 
0.000000 0.000000 0.000000 -0.000000 0.000000 -0.000000 -0.524456 0.193375 -2.284902 0.388650 -0.039077 -0.443918 -0.193155 -0.256189 1.516929 0.096692 0.098486 1.187445 0.102489 0.020929 0.331783 3.001001 -6.938266 -1.285865 -6.298646 5.801964 0.726827 0.102489 0.020929 0.331783 4.317421 1.635216 1.766838 0.264138 -2.756322 -0.181122 -0.102489 0.020929 0.331783 -2.480811 -1.995646 0.227471 3.476546 5.590602 0.067541 -0.102489 0.020929 0.331783 -2.663758 5.256465 -0.215297 6.659678 -4.974095 0.135095 -0.000002 -0.000000 0.000000 -0.000001 -0.000000 -0.000000 
0.000000 0.000000 0.000000 -0.000000 0.000000 -0.000000 -1.324049 0.060864 -4.132888 1.087081 0.119139 1.341576 0.599818 -0.425100 -0.328690 -0.607966 0.225704 2.975227 0.102489 0.020929 0.331783 -0.798399 -6.242019 -3.276593 -7.172712 4.087836 0.751056 0.102489 0.020929 0.331783 6.315314 0.654239 3.696368 4.204777 -1.326111 -0.226441 -0.102489 0.020929 0.331783 -0.591525 -3.599345 -1.625226 6.880868 7.169121 0.057713 -0.102489 0.020929 0.331783 -2.920787 2.017350 1.422530 0.936139 -1.552978 -0.143174 -0.000002 -0.000000 0.000000 -0.000001 -0.000000 -0.000000 
0.000000 0.000000 0.000000 -0.000000 0.000000 -0.000000 -2.119855 -0.044867 -5.965048 1.773534 0.297183 3.107722 1.379324 -0.617399 -2.153987 -1.309418 0.329960 4.747235 0.102489 0.020929 0.331783 -5.009662 -4.746965 -5.156311 -7.616254 1.896638 0.681356 0.102489 0.020929 0.331783 8.327133 -0.250015 5.641099 8.110077 0.085294 -0.368206 -0.102489 0.020929 0.331783 1.232063 -5.246369 -3.411237 10.270749 8.732954 -0.045865 -0.102489 0.020929 0.331783 -2.655946 -1.680199 2.969113 -5.874743 2.864000 0.011300 -0.000002 -0.000000 0.000000 -0.000001 -0.000000 -0.000000 
0.000000 0.000000 0.000000 -0.000000 0.000000 -0.000000 -2.667912 -0.102685 -7.223559 2.241270 0.431559 4.318455 1.910478 -0.763656 -3.404908 -1.792550 0.388940 5.964132 0.102489 0.020929 0.331783 -8.052537 -3.369410 -6.350387 -7.753094 0.192844 0.599004 0.102489 0.020929 0.331783 9.726034 -0.830685 6.994394 10.791426 1.046336 -0.520895 -0.102489 0.020929 0.331783 2.456038 -6.408313 -4.608732 12.610155 9.803073 -0.171665 -0.102489 0.020929 0.331783 -2.241805 -4.404062 4.022870 -11.025634 6.259409 0.491620 -0.000002 -0.000000 0.000000 -0.000001 -0.000000 -0.000000 
0.000000 0.000000 0.000000 -0.000000 0.000000 -0.000000 -2.850228 -0.119224 -7.641732 2.395954 0.478365 4.720295 2.086134 -0.814778 -3.820001 -1.953269 0.406256 6.368421 0.102489 0.020929 0.331783 -9.090764 -2.845720 -6.723825 -7.766571 -0.411616 0.566201 0.102489 0.020929 0.331783 10.193810 -1.016203 7.447100 11.682217 1.363564 -0.581501 -0.102489 0.020929 0.331783 2.857587 -6.799619 -5.001378 13.389877 10.157529 -0.223395 -0.102489 0.020929 0.331783 -2.059287 -5.343051 4.374346 -12.831071 7.446032 0.734510 -0.000002 -0.000000 0.000000 -0.000001 -0.000000 -0.000000 
